G75*
G70*
%OFA0B0*%
%FSLAX24Y24*%
%IPPOS*%
%LPD*%
%AMOC8*
5,1,8,0,0,1.08239X$1,22.5*
%
%ADD10C,0.0000*%
%ADD11R,0.0827X0.0827*%
%ADD12OC8,0.1500*%
%ADD13OC8,0.0520*%
%ADD14C,0.0740*%
%ADD15OC8,0.0740*%
%ADD16C,0.0860*%
%ADD17C,0.0160*%
%ADD18C,0.0320*%
%ADD19C,0.0317*%
%ADD20C,0.1660*%
D10*
X000100Y000100D02*
X000100Y027296D01*
X025170Y027296D01*
X025170Y000100D01*
X000100Y000100D01*
X001407Y008816D02*
X001409Y008864D01*
X001415Y008912D01*
X001425Y008959D01*
X001438Y009005D01*
X001456Y009050D01*
X001476Y009094D01*
X001501Y009136D01*
X001529Y009175D01*
X001559Y009212D01*
X001593Y009246D01*
X001630Y009278D01*
X001668Y009307D01*
X001709Y009332D01*
X001752Y009354D01*
X001797Y009372D01*
X001843Y009386D01*
X001890Y009397D01*
X001938Y009404D01*
X001986Y009407D01*
X002034Y009406D01*
X002082Y009401D01*
X002130Y009392D01*
X002176Y009380D01*
X002221Y009363D01*
X002265Y009343D01*
X002307Y009320D01*
X002347Y009293D01*
X002385Y009263D01*
X002420Y009230D01*
X002452Y009194D01*
X002482Y009156D01*
X002508Y009115D01*
X002530Y009072D01*
X002550Y009028D01*
X002565Y008983D01*
X002577Y008936D01*
X002585Y008888D01*
X002589Y008840D01*
X002589Y008792D01*
X002585Y008744D01*
X002577Y008696D01*
X002565Y008649D01*
X002550Y008604D01*
X002530Y008560D01*
X002508Y008517D01*
X002482Y008476D01*
X002452Y008438D01*
X002420Y008402D01*
X002385Y008369D01*
X002347Y008339D01*
X002307Y008312D01*
X002265Y008289D01*
X002221Y008269D01*
X002176Y008252D01*
X002130Y008240D01*
X002082Y008231D01*
X002034Y008226D01*
X001986Y008225D01*
X001938Y008228D01*
X001890Y008235D01*
X001843Y008246D01*
X001797Y008260D01*
X001752Y008278D01*
X001709Y008300D01*
X001668Y008325D01*
X001630Y008354D01*
X001593Y008386D01*
X001559Y008420D01*
X001529Y008457D01*
X001501Y008496D01*
X001476Y008538D01*
X001456Y008582D01*
X001438Y008627D01*
X001425Y008673D01*
X001415Y008720D01*
X001409Y008768D01*
X001407Y008816D01*
X001407Y020784D02*
X001409Y020832D01*
X001415Y020880D01*
X001425Y020927D01*
X001438Y020973D01*
X001456Y021018D01*
X001476Y021062D01*
X001501Y021104D01*
X001529Y021143D01*
X001559Y021180D01*
X001593Y021214D01*
X001630Y021246D01*
X001668Y021275D01*
X001709Y021300D01*
X001752Y021322D01*
X001797Y021340D01*
X001843Y021354D01*
X001890Y021365D01*
X001938Y021372D01*
X001986Y021375D01*
X002034Y021374D01*
X002082Y021369D01*
X002130Y021360D01*
X002176Y021348D01*
X002221Y021331D01*
X002265Y021311D01*
X002307Y021288D01*
X002347Y021261D01*
X002385Y021231D01*
X002420Y021198D01*
X002452Y021162D01*
X002482Y021124D01*
X002508Y021083D01*
X002530Y021040D01*
X002550Y020996D01*
X002565Y020951D01*
X002577Y020904D01*
X002585Y020856D01*
X002589Y020808D01*
X002589Y020760D01*
X002585Y020712D01*
X002577Y020664D01*
X002565Y020617D01*
X002550Y020572D01*
X002530Y020528D01*
X002508Y020485D01*
X002482Y020444D01*
X002452Y020406D01*
X002420Y020370D01*
X002385Y020337D01*
X002347Y020307D01*
X002307Y020280D01*
X002265Y020257D01*
X002221Y020237D01*
X002176Y020220D01*
X002130Y020208D01*
X002082Y020199D01*
X002034Y020194D01*
X001986Y020193D01*
X001938Y020196D01*
X001890Y020203D01*
X001843Y020214D01*
X001797Y020228D01*
X001752Y020246D01*
X001709Y020268D01*
X001668Y020293D01*
X001630Y020322D01*
X001593Y020354D01*
X001559Y020388D01*
X001529Y020425D01*
X001501Y020464D01*
X001476Y020506D01*
X001456Y020550D01*
X001438Y020595D01*
X001425Y020641D01*
X001415Y020688D01*
X001409Y020736D01*
X001407Y020784D01*
X022011Y026145D02*
X022013Y026193D01*
X022019Y026241D01*
X022029Y026288D01*
X022042Y026334D01*
X022060Y026379D01*
X022080Y026423D01*
X022105Y026465D01*
X022133Y026504D01*
X022163Y026541D01*
X022197Y026575D01*
X022234Y026607D01*
X022272Y026636D01*
X022313Y026661D01*
X022356Y026683D01*
X022401Y026701D01*
X022447Y026715D01*
X022494Y026726D01*
X022542Y026733D01*
X022590Y026736D01*
X022638Y026735D01*
X022686Y026730D01*
X022734Y026721D01*
X022780Y026709D01*
X022825Y026692D01*
X022869Y026672D01*
X022911Y026649D01*
X022951Y026622D01*
X022989Y026592D01*
X023024Y026559D01*
X023056Y026523D01*
X023086Y026485D01*
X023112Y026444D01*
X023134Y026401D01*
X023154Y026357D01*
X023169Y026312D01*
X023181Y026265D01*
X023189Y026217D01*
X023193Y026169D01*
X023193Y026121D01*
X023189Y026073D01*
X023181Y026025D01*
X023169Y025978D01*
X023154Y025933D01*
X023134Y025889D01*
X023112Y025846D01*
X023086Y025805D01*
X023056Y025767D01*
X023024Y025731D01*
X022989Y025698D01*
X022951Y025668D01*
X022911Y025641D01*
X022869Y025618D01*
X022825Y025598D01*
X022780Y025581D01*
X022734Y025569D01*
X022686Y025560D01*
X022638Y025555D01*
X022590Y025554D01*
X022542Y025557D01*
X022494Y025564D01*
X022447Y025575D01*
X022401Y025589D01*
X022356Y025607D01*
X022313Y025629D01*
X022272Y025654D01*
X022234Y025683D01*
X022197Y025715D01*
X022163Y025749D01*
X022133Y025786D01*
X022105Y025825D01*
X022080Y025867D01*
X022060Y025911D01*
X022042Y025956D01*
X022029Y026002D01*
X022019Y026049D01*
X022013Y026097D01*
X022011Y026145D01*
X022011Y004255D02*
X022013Y004303D01*
X022019Y004351D01*
X022029Y004398D01*
X022042Y004444D01*
X022060Y004489D01*
X022080Y004533D01*
X022105Y004575D01*
X022133Y004614D01*
X022163Y004651D01*
X022197Y004685D01*
X022234Y004717D01*
X022272Y004746D01*
X022313Y004771D01*
X022356Y004793D01*
X022401Y004811D01*
X022447Y004825D01*
X022494Y004836D01*
X022542Y004843D01*
X022590Y004846D01*
X022638Y004845D01*
X022686Y004840D01*
X022734Y004831D01*
X022780Y004819D01*
X022825Y004802D01*
X022869Y004782D01*
X022911Y004759D01*
X022951Y004732D01*
X022989Y004702D01*
X023024Y004669D01*
X023056Y004633D01*
X023086Y004595D01*
X023112Y004554D01*
X023134Y004511D01*
X023154Y004467D01*
X023169Y004422D01*
X023181Y004375D01*
X023189Y004327D01*
X023193Y004279D01*
X023193Y004231D01*
X023189Y004183D01*
X023181Y004135D01*
X023169Y004088D01*
X023154Y004043D01*
X023134Y003999D01*
X023112Y003956D01*
X023086Y003915D01*
X023056Y003877D01*
X023024Y003841D01*
X022989Y003808D01*
X022951Y003778D01*
X022911Y003751D01*
X022869Y003728D01*
X022825Y003708D01*
X022780Y003691D01*
X022734Y003679D01*
X022686Y003670D01*
X022638Y003665D01*
X022590Y003664D01*
X022542Y003667D01*
X022494Y003674D01*
X022447Y003685D01*
X022401Y003699D01*
X022356Y003717D01*
X022313Y003739D01*
X022272Y003764D01*
X022234Y003793D01*
X022197Y003825D01*
X022163Y003859D01*
X022133Y003896D01*
X022105Y003935D01*
X022080Y003977D01*
X022060Y004021D01*
X022042Y004066D01*
X022029Y004112D01*
X022019Y004159D01*
X022013Y004207D01*
X022011Y004255D01*
D11*
X022783Y006106D03*
X022783Y007759D03*
X022783Y009413D03*
X022783Y011066D03*
X022783Y012720D03*
X022783Y014373D03*
X022783Y016027D03*
X022783Y017680D03*
X022783Y019334D03*
X022783Y020987D03*
X022783Y022641D03*
X022783Y024294D03*
X020617Y024294D03*
X020617Y022641D03*
X020617Y020987D03*
X020617Y019334D03*
X020617Y017680D03*
X020617Y016027D03*
X020617Y014373D03*
X020617Y012720D03*
X020617Y011066D03*
X020617Y009413D03*
X020617Y007759D03*
X020617Y006106D03*
X003983Y010666D03*
X003983Y012320D03*
X003983Y013973D03*
X003983Y015627D03*
X003983Y017280D03*
X003983Y018934D03*
X001817Y018934D03*
X001817Y017280D03*
X001817Y015627D03*
X001817Y013973D03*
X001817Y012320D03*
X001817Y010666D03*
D12*
X009100Y011200D03*
X009100Y013200D03*
X009100Y017000D03*
X009100Y019000D03*
X009100Y022700D03*
X009100Y024700D03*
X015300Y024700D03*
X015300Y022700D03*
X015300Y019000D03*
X015300Y017000D03*
X015300Y013200D03*
X015300Y011200D03*
X015300Y007700D03*
X015300Y005700D03*
X009100Y005700D03*
X009100Y007700D03*
D13*
X008900Y003800D03*
X010900Y001900D03*
X011900Y001900D03*
X013700Y001900D03*
X014700Y001900D03*
X013700Y003800D03*
X011900Y003800D03*
X016700Y003800D03*
D14*
X019200Y001900D03*
X020200Y001900D03*
D15*
X004900Y003200D03*
X004900Y004200D03*
X004900Y005200D03*
X004900Y006200D03*
X004900Y007200D03*
X003900Y007200D03*
X003900Y006200D03*
X003900Y005200D03*
X003900Y004200D03*
X003900Y003200D03*
D16*
X003500Y009400D02*
X001817Y010666D01*
X001817Y012320D02*
X001817Y013973D01*
X001817Y015627D01*
X001817Y017280D01*
X001817Y018934D01*
X003983Y018934D02*
X003983Y019913D01*
X009100Y024700D01*
X013200Y020987D02*
X013200Y013200D01*
X015300Y013200D01*
X011800Y009400D02*
X003500Y009400D01*
X003983Y013973D02*
X005997Y013973D01*
X009100Y013200D01*
X011800Y009400D02*
X020605Y009400D01*
X020617Y009413D01*
X022783Y009413D01*
X024087Y009413D01*
X024100Y009400D01*
X024100Y012700D01*
X022802Y012700D01*
X022783Y012720D01*
X022783Y014373D01*
X022783Y016027D01*
X022856Y016100D01*
X024100Y016100D01*
X024100Y024300D01*
X024094Y024294D01*
X022783Y024294D01*
X022783Y022641D02*
X022783Y020987D01*
X022783Y019334D01*
X020617Y020987D02*
X020617Y022641D01*
X020617Y024294D02*
X017224Y024294D01*
X015300Y024700D01*
X013200Y020987D02*
X020617Y020987D01*
X019100Y018200D02*
X019100Y014400D01*
X019100Y012000D01*
X019634Y011066D01*
X020617Y011066D01*
X020617Y012720D02*
X022783Y012720D01*
X020617Y014400D02*
X019100Y014400D01*
X020617Y016027D02*
X022783Y016027D01*
X019100Y018200D02*
X017600Y018200D01*
X016800Y019000D01*
X015300Y019000D01*
X009100Y019000D02*
X006850Y017280D01*
X003983Y017280D01*
X003983Y015627D02*
X003983Y013973D01*
X015300Y007700D02*
X018900Y007700D01*
X018900Y005000D01*
X021300Y002900D01*
X023700Y002900D01*
X024200Y003100D01*
X024200Y007800D01*
X022824Y007800D01*
X022783Y007759D01*
D17*
X022783Y010200D02*
X017100Y010200D01*
X020617Y014373D02*
X020617Y014400D01*
X020617Y017680D02*
X020617Y017700D01*
X021700Y017700D01*
X021700Y020100D01*
X014100Y020100D01*
X014100Y015600D01*
X018000Y019300D02*
X018000Y019334D01*
X020617Y019334D01*
X022783Y011066D02*
X022783Y010200D01*
X019200Y001900D02*
X014700Y001900D01*
X014700Y001300D01*
X010900Y001300D01*
X010900Y001900D01*
X011900Y001900D02*
X011900Y003800D01*
X013700Y003800D02*
X013700Y001900D01*
X011300Y008400D02*
X010700Y008400D01*
X010400Y008700D01*
X003900Y008700D01*
X003900Y007200D01*
D18*
X003900Y006200D02*
X003900Y005200D01*
X003900Y004200D01*
X003900Y003200D01*
X004900Y003200D02*
X004900Y001400D01*
X002900Y001400D01*
X004900Y004200D02*
X006100Y004200D01*
X007300Y003200D01*
X010900Y003200D01*
X011800Y005000D01*
X011800Y009400D01*
X010900Y003200D02*
X010900Y001900D01*
X004900Y004200D02*
X004900Y005200D01*
X004900Y006200D01*
X004900Y007200D01*
D19*
X002900Y001400D03*
X011300Y008400D03*
X017100Y010200D03*
X014100Y015600D03*
X018000Y019300D03*
D20*
X018600Y026000D03*
X001400Y025900D03*
X001400Y001400D03*
X023800Y001400D03*
M02*
