%
M48
M72
T01C0.0197
T02C0.0320
T03C0.0400
T04C0.0551
T05C0.0591
T06C0.1181
T07C0.1260
%
T01
X2900Y1400
X11300Y8400
X17100Y10200
X14100Y15600
X18000Y19300
T02
X8900Y3800
X10900Y1900
X11900Y1900
X13700Y1900
X14700Y1900
X13700Y3800
X11900Y3800
X16700Y3800
T03
X3900Y7200
X3900Y6200
X3900Y5200
X3900Y4200
X3900Y3200
X4900Y3200
X4900Y4200
X4900Y5200
X4900Y6200
X4900Y7200
X19200Y1900
X20200Y1900
T04
X1817Y18934
X1817Y17280
X1817Y15627
X1817Y13973
X1817Y12320
X1817Y10666
X3983Y10666
X3983Y12320
X3983Y13973
X3983Y15627
X3983Y17280
X3983Y18934
X20617Y19334
X20617Y20987
X20617Y22641
X20617Y24294
X22783Y24294
X22783Y22641
X22783Y20987
X22783Y19334
X22783Y17680
X22783Y16027
X22783Y14373
X22783Y12720
X22783Y11066
X22783Y9413
X22783Y7759
X22783Y6106
X20617Y6106
X20617Y7759
X20617Y9413
X20617Y11066
X20617Y12720
X20617Y14373
X20617Y16027
X20617Y17680
T05
X9100Y19000
X9100Y17000
X9100Y13200
X9100Y11200
X9100Y7700
X9100Y5700
X15300Y5700
X15300Y7700
X15300Y11200
X15300Y13200
X15300Y17000
X15300Y19000
X15300Y22700
X15300Y24700
X9100Y24700
X9100Y22700
T06
X1998Y20784
X1998Y8816
X22602Y4255
X22602Y26145
T07
X1400Y25900
X1400Y1400
X23800Y1400
X18600Y26000
M30
