G75*
G70*
%OFA0B0*%
%FSLAX24Y24*%
%IPPOS*%
%LPD*%
%AMOC8*
5,1,8,0,0,1.08239X$1,22.5*
%
%ADD10C,0.0000*%
%ADD11C,0.0060*%
%ADD12R,0.0100X0.0600*%
%ADD13R,0.0300X0.0100*%
%ADD14C,0.0030*%
%ADD15C,0.0100*%
%ADD16C,0.0040*%
%ADD17C,0.0020*%
%ADD18R,0.4000X0.0200*%
%ADD19R,0.0200X0.2500*%
%ADD20R,0.0100X0.1800*%
%ADD21R,0.0150X0.0100*%
%ADD22R,0.0100X0.0400*%
%ADD23R,0.0100X0.2000*%
%ADD24R,0.1600X0.0150*%
%ADD25C,0.0070*%
%ADD26C,0.0080*%
%ADD27C,0.0050*%
%ADD28C,0.0200*%
%ADD29R,0.0150X0.0200*%
%ADD30R,0.0200X0.0200*%
%ADD31C,0.0059*%
%ADD32C,0.0010*%
D10*
X000100Y000100D02*
X000100Y027296D01*
X025170Y027296D01*
X025170Y000100D01*
X000100Y000100D01*
X001407Y008816D02*
X001409Y008864D01*
X001415Y008912D01*
X001425Y008959D01*
X001438Y009005D01*
X001456Y009050D01*
X001476Y009094D01*
X001501Y009136D01*
X001529Y009175D01*
X001559Y009212D01*
X001593Y009246D01*
X001630Y009278D01*
X001668Y009307D01*
X001709Y009332D01*
X001752Y009354D01*
X001797Y009372D01*
X001843Y009386D01*
X001890Y009397D01*
X001938Y009404D01*
X001986Y009407D01*
X002034Y009406D01*
X002082Y009401D01*
X002130Y009392D01*
X002176Y009380D01*
X002221Y009363D01*
X002265Y009343D01*
X002307Y009320D01*
X002347Y009293D01*
X002385Y009263D01*
X002420Y009230D01*
X002452Y009194D01*
X002482Y009156D01*
X002508Y009115D01*
X002530Y009072D01*
X002550Y009028D01*
X002565Y008983D01*
X002577Y008936D01*
X002585Y008888D01*
X002589Y008840D01*
X002589Y008792D01*
X002585Y008744D01*
X002577Y008696D01*
X002565Y008649D01*
X002550Y008604D01*
X002530Y008560D01*
X002508Y008517D01*
X002482Y008476D01*
X002452Y008438D01*
X002420Y008402D01*
X002385Y008369D01*
X002347Y008339D01*
X002307Y008312D01*
X002265Y008289D01*
X002221Y008269D01*
X002176Y008252D01*
X002130Y008240D01*
X002082Y008231D01*
X002034Y008226D01*
X001986Y008225D01*
X001938Y008228D01*
X001890Y008235D01*
X001843Y008246D01*
X001797Y008260D01*
X001752Y008278D01*
X001709Y008300D01*
X001668Y008325D01*
X001630Y008354D01*
X001593Y008386D01*
X001559Y008420D01*
X001529Y008457D01*
X001501Y008496D01*
X001476Y008538D01*
X001456Y008582D01*
X001438Y008627D01*
X001425Y008673D01*
X001415Y008720D01*
X001409Y008768D01*
X001407Y008816D01*
X001407Y020784D02*
X001409Y020832D01*
X001415Y020880D01*
X001425Y020927D01*
X001438Y020973D01*
X001456Y021018D01*
X001476Y021062D01*
X001501Y021104D01*
X001529Y021143D01*
X001559Y021180D01*
X001593Y021214D01*
X001630Y021246D01*
X001668Y021275D01*
X001709Y021300D01*
X001752Y021322D01*
X001797Y021340D01*
X001843Y021354D01*
X001890Y021365D01*
X001938Y021372D01*
X001986Y021375D01*
X002034Y021374D01*
X002082Y021369D01*
X002130Y021360D01*
X002176Y021348D01*
X002221Y021331D01*
X002265Y021311D01*
X002307Y021288D01*
X002347Y021261D01*
X002385Y021231D01*
X002420Y021198D01*
X002452Y021162D01*
X002482Y021124D01*
X002508Y021083D01*
X002530Y021040D01*
X002550Y020996D01*
X002565Y020951D01*
X002577Y020904D01*
X002585Y020856D01*
X002589Y020808D01*
X002589Y020760D01*
X002585Y020712D01*
X002577Y020664D01*
X002565Y020617D01*
X002550Y020572D01*
X002530Y020528D01*
X002508Y020485D01*
X002482Y020444D01*
X002452Y020406D01*
X002420Y020370D01*
X002385Y020337D01*
X002347Y020307D01*
X002307Y020280D01*
X002265Y020257D01*
X002221Y020237D01*
X002176Y020220D01*
X002130Y020208D01*
X002082Y020199D01*
X002034Y020194D01*
X001986Y020193D01*
X001938Y020196D01*
X001890Y020203D01*
X001843Y020214D01*
X001797Y020228D01*
X001752Y020246D01*
X001709Y020268D01*
X001668Y020293D01*
X001630Y020322D01*
X001593Y020354D01*
X001559Y020388D01*
X001529Y020425D01*
X001501Y020464D01*
X001476Y020506D01*
X001456Y020550D01*
X001438Y020595D01*
X001425Y020641D01*
X001415Y020688D01*
X001409Y020736D01*
X001407Y020784D01*
X022011Y026145D02*
X022013Y026193D01*
X022019Y026241D01*
X022029Y026288D01*
X022042Y026334D01*
X022060Y026379D01*
X022080Y026423D01*
X022105Y026465D01*
X022133Y026504D01*
X022163Y026541D01*
X022197Y026575D01*
X022234Y026607D01*
X022272Y026636D01*
X022313Y026661D01*
X022356Y026683D01*
X022401Y026701D01*
X022447Y026715D01*
X022494Y026726D01*
X022542Y026733D01*
X022590Y026736D01*
X022638Y026735D01*
X022686Y026730D01*
X022734Y026721D01*
X022780Y026709D01*
X022825Y026692D01*
X022869Y026672D01*
X022911Y026649D01*
X022951Y026622D01*
X022989Y026592D01*
X023024Y026559D01*
X023056Y026523D01*
X023086Y026485D01*
X023112Y026444D01*
X023134Y026401D01*
X023154Y026357D01*
X023169Y026312D01*
X023181Y026265D01*
X023189Y026217D01*
X023193Y026169D01*
X023193Y026121D01*
X023189Y026073D01*
X023181Y026025D01*
X023169Y025978D01*
X023154Y025933D01*
X023134Y025889D01*
X023112Y025846D01*
X023086Y025805D01*
X023056Y025767D01*
X023024Y025731D01*
X022989Y025698D01*
X022951Y025668D01*
X022911Y025641D01*
X022869Y025618D01*
X022825Y025598D01*
X022780Y025581D01*
X022734Y025569D01*
X022686Y025560D01*
X022638Y025555D01*
X022590Y025554D01*
X022542Y025557D01*
X022494Y025564D01*
X022447Y025575D01*
X022401Y025589D01*
X022356Y025607D01*
X022313Y025629D01*
X022272Y025654D01*
X022234Y025683D01*
X022197Y025715D01*
X022163Y025749D01*
X022133Y025786D01*
X022105Y025825D01*
X022080Y025867D01*
X022060Y025911D01*
X022042Y025956D01*
X022029Y026002D01*
X022019Y026049D01*
X022013Y026097D01*
X022011Y026145D01*
X022011Y004255D02*
X022013Y004303D01*
X022019Y004351D01*
X022029Y004398D01*
X022042Y004444D01*
X022060Y004489D01*
X022080Y004533D01*
X022105Y004575D01*
X022133Y004614D01*
X022163Y004651D01*
X022197Y004685D01*
X022234Y004717D01*
X022272Y004746D01*
X022313Y004771D01*
X022356Y004793D01*
X022401Y004811D01*
X022447Y004825D01*
X022494Y004836D01*
X022542Y004843D01*
X022590Y004846D01*
X022638Y004845D01*
X022686Y004840D01*
X022734Y004831D01*
X022780Y004819D01*
X022825Y004802D01*
X022869Y004782D01*
X022911Y004759D01*
X022951Y004732D01*
X022989Y004702D01*
X023024Y004669D01*
X023056Y004633D01*
X023086Y004595D01*
X023112Y004554D01*
X023134Y004511D01*
X023154Y004467D01*
X023169Y004422D01*
X023181Y004375D01*
X023189Y004327D01*
X023193Y004279D01*
X023193Y004231D01*
X023189Y004183D01*
X023181Y004135D01*
X023169Y004088D01*
X023154Y004043D01*
X023134Y003999D01*
X023112Y003956D01*
X023086Y003915D01*
X023056Y003877D01*
X023024Y003841D01*
X022989Y003808D01*
X022951Y003778D01*
X022911Y003751D01*
X022869Y003728D01*
X022825Y003708D01*
X022780Y003691D01*
X022734Y003679D01*
X022686Y003670D01*
X022638Y003665D01*
X022590Y003664D01*
X022542Y003667D01*
X022494Y003674D01*
X022447Y003685D01*
X022401Y003699D01*
X022356Y003717D01*
X022313Y003739D01*
X022272Y003764D01*
X022234Y003793D01*
X022197Y003825D01*
X022163Y003859D01*
X022133Y003896D01*
X022105Y003935D01*
X022080Y003977D01*
X022060Y004021D01*
X022042Y004066D01*
X022029Y004112D01*
X022019Y004159D01*
X022013Y004207D01*
X022011Y004255D01*
D11*
X016550Y005250D02*
X016550Y006350D01*
X016450Y006350D01*
X016450Y008050D01*
X016300Y008050D01*
X016300Y007700D01*
X016100Y007700D01*
X014500Y007700D01*
X014500Y008150D01*
X014600Y008150D01*
X016000Y008150D01*
X016300Y008150D01*
X016550Y008150D01*
X016550Y006350D01*
X016450Y006350D02*
X016450Y005350D01*
X016300Y005350D01*
X016300Y005700D01*
X016300Y005900D01*
X016300Y005700D02*
X016100Y005700D01*
X014500Y005700D01*
X014500Y005250D01*
X014600Y005250D01*
X016000Y005250D01*
X016300Y005250D01*
X016550Y005250D01*
X016300Y005250D02*
X016300Y005350D01*
X016100Y004200D02*
X015950Y004200D01*
X015900Y004150D01*
X014500Y004150D01*
X014450Y004200D01*
X014300Y004200D01*
X014283Y004198D01*
X014266Y004194D01*
X014250Y004187D01*
X014236Y004177D01*
X014223Y004164D01*
X014213Y004150D01*
X014206Y004134D01*
X014202Y004117D01*
X014200Y004100D01*
X014200Y003500D01*
X014202Y003483D01*
X014206Y003466D01*
X014213Y003450D01*
X014223Y003436D01*
X014236Y003423D01*
X014250Y003413D01*
X014266Y003406D01*
X014283Y003402D01*
X014300Y003400D01*
X014450Y003400D01*
X014500Y003450D01*
X015900Y003450D01*
X015950Y003400D01*
X016100Y003400D01*
X016117Y003402D01*
X016134Y003406D01*
X016150Y003413D01*
X016164Y003423D01*
X016177Y003436D01*
X016187Y003450D01*
X016194Y003466D01*
X016198Y003483D01*
X016200Y003500D01*
X016200Y004100D01*
X016198Y004117D01*
X016194Y004134D01*
X016187Y004150D01*
X016177Y004164D01*
X016164Y004177D01*
X016150Y004187D01*
X016134Y004194D01*
X016117Y004198D01*
X016100Y004200D01*
X013200Y001900D02*
X013202Y001963D01*
X013208Y002025D01*
X013218Y002087D01*
X013231Y002149D01*
X013249Y002209D01*
X013270Y002268D01*
X013295Y002326D01*
X013324Y002382D01*
X013356Y002436D01*
X013391Y002488D01*
X013429Y002537D01*
X013471Y002585D01*
X013515Y002629D01*
X013563Y002671D01*
X013612Y002709D01*
X013664Y002744D01*
X013718Y002776D01*
X013774Y002805D01*
X013832Y002830D01*
X013891Y002851D01*
X013951Y002869D01*
X014013Y002882D01*
X014075Y002892D01*
X014137Y002898D01*
X014200Y002900D01*
X014263Y002898D01*
X014325Y002892D01*
X014387Y002882D01*
X014449Y002869D01*
X014509Y002851D01*
X014568Y002830D01*
X014626Y002805D01*
X014682Y002776D01*
X014736Y002744D01*
X014788Y002709D01*
X014837Y002671D01*
X014885Y002629D01*
X014929Y002585D01*
X014971Y002537D01*
X015009Y002488D01*
X015044Y002436D01*
X015076Y002382D01*
X015105Y002326D01*
X015130Y002268D01*
X015151Y002209D01*
X015169Y002149D01*
X015182Y002087D01*
X015192Y002025D01*
X015198Y001963D01*
X015200Y001900D01*
X015198Y001837D01*
X015192Y001775D01*
X015182Y001713D01*
X015169Y001651D01*
X015151Y001591D01*
X015130Y001532D01*
X015105Y001474D01*
X015076Y001418D01*
X015044Y001364D01*
X015009Y001312D01*
X014971Y001263D01*
X014929Y001215D01*
X014885Y001171D01*
X014837Y001129D01*
X014788Y001091D01*
X014736Y001056D01*
X014682Y001024D01*
X014626Y000995D01*
X014568Y000970D01*
X014509Y000949D01*
X014449Y000931D01*
X014387Y000918D01*
X014325Y000908D01*
X014263Y000902D01*
X014200Y000900D01*
X014137Y000902D01*
X014075Y000908D01*
X014013Y000918D01*
X013951Y000931D01*
X013891Y000949D01*
X013832Y000970D01*
X013774Y000995D01*
X013718Y001024D01*
X013664Y001056D01*
X013612Y001091D01*
X013563Y001129D01*
X013515Y001171D01*
X013471Y001215D01*
X013429Y001263D01*
X013391Y001312D01*
X013356Y001364D01*
X013324Y001418D01*
X013295Y001474D01*
X013270Y001532D01*
X013249Y001591D01*
X013231Y001651D01*
X013218Y001713D01*
X013208Y001775D01*
X013202Y001837D01*
X013200Y001900D01*
X014200Y001050D02*
X014256Y001052D01*
X014311Y001057D01*
X014366Y001066D01*
X014420Y001079D01*
X014473Y001095D01*
X014525Y001115D01*
X014576Y001138D01*
X014625Y001164D01*
X014672Y001193D01*
X014717Y001226D01*
X014760Y001261D01*
X014801Y001299D01*
X014839Y001340D01*
X014874Y001383D01*
X014907Y001428D01*
X014936Y001475D01*
X014962Y001524D01*
X014985Y001575D01*
X015005Y001627D01*
X015021Y001680D01*
X015034Y001734D01*
X015043Y001789D01*
X015048Y001844D01*
X015050Y001900D01*
X014200Y002750D02*
X014144Y002748D01*
X014089Y002743D01*
X014034Y002734D01*
X013980Y002721D01*
X013927Y002705D01*
X013875Y002685D01*
X013824Y002662D01*
X013775Y002636D01*
X013728Y002607D01*
X013683Y002574D01*
X013640Y002539D01*
X013599Y002501D01*
X013561Y002460D01*
X013526Y002417D01*
X013493Y002372D01*
X013464Y002325D01*
X013438Y002276D01*
X013415Y002225D01*
X013395Y002173D01*
X013379Y002120D01*
X013366Y002066D01*
X013357Y002011D01*
X013352Y001956D01*
X013350Y001900D01*
X014200Y001250D02*
X014249Y001252D01*
X014297Y001257D01*
X014345Y001266D01*
X014392Y001279D01*
X014437Y001295D01*
X014482Y001314D01*
X014525Y001337D01*
X014566Y001363D01*
X014605Y001392D01*
X014642Y001424D01*
X014676Y001458D01*
X014708Y001495D01*
X014737Y001534D01*
X014763Y001575D01*
X014786Y001618D01*
X014805Y001663D01*
X014821Y001708D01*
X014834Y001755D01*
X014843Y001803D01*
X014848Y001851D01*
X014850Y001900D01*
X014200Y002550D02*
X014151Y002548D01*
X014103Y002543D01*
X014055Y002534D01*
X014008Y002521D01*
X013963Y002505D01*
X013918Y002486D01*
X013875Y002463D01*
X013834Y002437D01*
X013795Y002408D01*
X013758Y002376D01*
X013724Y002342D01*
X013692Y002305D01*
X013663Y002266D01*
X013637Y002225D01*
X013614Y002182D01*
X013595Y002137D01*
X013579Y002092D01*
X013566Y002045D01*
X013557Y001997D01*
X013552Y001949D01*
X013550Y001900D01*
X014200Y001450D02*
X014242Y001452D01*
X014283Y001458D01*
X014323Y001467D01*
X014363Y001480D01*
X014401Y001497D01*
X014437Y001517D01*
X014471Y001541D01*
X014503Y001567D01*
X014533Y001597D01*
X014559Y001629D01*
X014583Y001663D01*
X014603Y001699D01*
X014620Y001737D01*
X014633Y001777D01*
X014642Y001817D01*
X014648Y001858D01*
X014650Y001900D01*
X014200Y002350D02*
X014158Y002348D01*
X014117Y002342D01*
X014077Y002333D01*
X014037Y002320D01*
X013999Y002303D01*
X013963Y002283D01*
X013929Y002259D01*
X013897Y002233D01*
X013867Y002203D01*
X013841Y002171D01*
X013817Y002137D01*
X013797Y002101D01*
X013780Y002063D01*
X013767Y002023D01*
X013758Y001983D01*
X013752Y001942D01*
X013750Y001900D01*
X010400Y001900D02*
X010402Y001963D01*
X010408Y002025D01*
X010418Y002087D01*
X010431Y002149D01*
X010449Y002209D01*
X010470Y002268D01*
X010495Y002326D01*
X010524Y002382D01*
X010556Y002436D01*
X010591Y002488D01*
X010629Y002537D01*
X010671Y002585D01*
X010715Y002629D01*
X010763Y002671D01*
X010812Y002709D01*
X010864Y002744D01*
X010918Y002776D01*
X010974Y002805D01*
X011032Y002830D01*
X011091Y002851D01*
X011151Y002869D01*
X011213Y002882D01*
X011275Y002892D01*
X011337Y002898D01*
X011400Y002900D01*
X011463Y002898D01*
X011525Y002892D01*
X011587Y002882D01*
X011649Y002869D01*
X011709Y002851D01*
X011768Y002830D01*
X011826Y002805D01*
X011882Y002776D01*
X011936Y002744D01*
X011988Y002709D01*
X012037Y002671D01*
X012085Y002629D01*
X012129Y002585D01*
X012171Y002537D01*
X012209Y002488D01*
X012244Y002436D01*
X012276Y002382D01*
X012305Y002326D01*
X012330Y002268D01*
X012351Y002209D01*
X012369Y002149D01*
X012382Y002087D01*
X012392Y002025D01*
X012398Y001963D01*
X012400Y001900D01*
X012398Y001837D01*
X012392Y001775D01*
X012382Y001713D01*
X012369Y001651D01*
X012351Y001591D01*
X012330Y001532D01*
X012305Y001474D01*
X012276Y001418D01*
X012244Y001364D01*
X012209Y001312D01*
X012171Y001263D01*
X012129Y001215D01*
X012085Y001171D01*
X012037Y001129D01*
X011988Y001091D01*
X011936Y001056D01*
X011882Y001024D01*
X011826Y000995D01*
X011768Y000970D01*
X011709Y000949D01*
X011649Y000931D01*
X011587Y000918D01*
X011525Y000908D01*
X011463Y000902D01*
X011400Y000900D01*
X011337Y000902D01*
X011275Y000908D01*
X011213Y000918D01*
X011151Y000931D01*
X011091Y000949D01*
X011032Y000970D01*
X010974Y000995D01*
X010918Y001024D01*
X010864Y001056D01*
X010812Y001091D01*
X010763Y001129D01*
X010715Y001171D01*
X010671Y001215D01*
X010629Y001263D01*
X010591Y001312D01*
X010556Y001364D01*
X010524Y001418D01*
X010495Y001474D01*
X010470Y001532D01*
X010449Y001591D01*
X010431Y001651D01*
X010418Y001713D01*
X010408Y001775D01*
X010402Y001837D01*
X010400Y001900D01*
X010550Y001900D02*
X010552Y001956D01*
X010557Y002011D01*
X010566Y002066D01*
X010579Y002120D01*
X010595Y002173D01*
X010615Y002225D01*
X010638Y002276D01*
X010664Y002325D01*
X010693Y002372D01*
X010726Y002417D01*
X010761Y002460D01*
X010799Y002501D01*
X010840Y002539D01*
X010883Y002574D01*
X010928Y002607D01*
X010975Y002636D01*
X011024Y002662D01*
X011075Y002685D01*
X011127Y002705D01*
X011180Y002721D01*
X011234Y002734D01*
X011289Y002743D01*
X011344Y002748D01*
X011400Y002750D01*
X011300Y003400D02*
X011150Y003400D01*
X011100Y003450D01*
X009700Y003450D01*
X009650Y003400D01*
X009500Y003400D01*
X009483Y003402D01*
X009466Y003406D01*
X009450Y003413D01*
X009436Y003423D01*
X009423Y003436D01*
X009413Y003450D01*
X009406Y003466D01*
X009402Y003483D01*
X009400Y003500D01*
X009400Y004100D01*
X009402Y004117D01*
X009406Y004134D01*
X009413Y004150D01*
X009423Y004164D01*
X009436Y004177D01*
X009450Y004187D01*
X009466Y004194D01*
X009483Y004198D01*
X009500Y004200D01*
X009650Y004200D01*
X009700Y004150D01*
X011100Y004150D01*
X011150Y004200D01*
X011300Y004200D01*
X011317Y004198D01*
X011334Y004194D01*
X011350Y004187D01*
X011364Y004177D01*
X011377Y004164D01*
X011387Y004150D01*
X011394Y004134D01*
X011398Y004117D01*
X011400Y004100D01*
X011400Y003500D01*
X011398Y003483D01*
X011394Y003466D01*
X011387Y003450D01*
X011377Y003436D01*
X011364Y003423D01*
X011350Y003413D01*
X011334Y003406D01*
X011317Y003402D01*
X011300Y003400D01*
X012250Y001900D02*
X012248Y001844D01*
X012243Y001789D01*
X012234Y001734D01*
X012221Y001680D01*
X012205Y001627D01*
X012185Y001575D01*
X012162Y001524D01*
X012136Y001475D01*
X012107Y001428D01*
X012074Y001383D01*
X012039Y001340D01*
X012001Y001299D01*
X011960Y001261D01*
X011917Y001226D01*
X011872Y001193D01*
X011825Y001164D01*
X011776Y001138D01*
X011725Y001115D01*
X011673Y001095D01*
X011620Y001079D01*
X011566Y001066D01*
X011511Y001057D01*
X011456Y001052D01*
X011400Y001050D01*
X010750Y001900D02*
X010752Y001949D01*
X010757Y001997D01*
X010766Y002045D01*
X010779Y002092D01*
X010795Y002137D01*
X010814Y002182D01*
X010837Y002225D01*
X010863Y002266D01*
X010892Y002305D01*
X010924Y002342D01*
X010958Y002376D01*
X010995Y002408D01*
X011034Y002437D01*
X011075Y002463D01*
X011118Y002486D01*
X011163Y002505D01*
X011208Y002521D01*
X011255Y002534D01*
X011303Y002543D01*
X011351Y002548D01*
X011400Y002550D01*
X012050Y001900D02*
X012048Y001851D01*
X012043Y001803D01*
X012034Y001755D01*
X012021Y001708D01*
X012005Y001663D01*
X011986Y001618D01*
X011963Y001575D01*
X011937Y001534D01*
X011908Y001495D01*
X011876Y001458D01*
X011842Y001424D01*
X011805Y001392D01*
X011766Y001363D01*
X011725Y001337D01*
X011682Y001314D01*
X011637Y001295D01*
X011592Y001279D01*
X011545Y001266D01*
X011497Y001257D01*
X011449Y001252D01*
X011400Y001250D01*
X010950Y001900D02*
X010952Y001942D01*
X010958Y001983D01*
X010967Y002023D01*
X010980Y002063D01*
X010997Y002101D01*
X011017Y002137D01*
X011041Y002171D01*
X011067Y002203D01*
X011097Y002233D01*
X011129Y002259D01*
X011163Y002283D01*
X011199Y002303D01*
X011237Y002320D01*
X011277Y002333D01*
X011317Y002342D01*
X011358Y002348D01*
X011400Y002350D01*
X011850Y001900D02*
X011848Y001858D01*
X011842Y001817D01*
X011833Y001777D01*
X011820Y001737D01*
X011803Y001699D01*
X011783Y001663D01*
X011759Y001629D01*
X011733Y001597D01*
X011703Y001567D01*
X011671Y001541D01*
X011637Y001517D01*
X011601Y001497D01*
X011563Y001480D01*
X011523Y001467D01*
X011483Y001458D01*
X011442Y001452D01*
X011400Y001450D01*
X007991Y002930D02*
X007670Y002930D01*
X007564Y003037D01*
X007670Y003144D01*
X007991Y003144D01*
X007991Y003250D02*
X007991Y002930D01*
X007991Y003250D02*
X007884Y003357D01*
X007670Y003357D01*
X007346Y003464D02*
X007346Y003037D01*
X007239Y002930D01*
X006919Y002930D01*
X006919Y003571D01*
X007239Y003571D01*
X007346Y003464D01*
X006702Y003571D02*
X006702Y002930D01*
X006275Y003571D01*
X006275Y002930D01*
X006057Y003037D02*
X006057Y003250D01*
X005844Y003250D01*
X006057Y003037D02*
X005950Y002930D01*
X005737Y002930D01*
X005630Y003037D01*
X005630Y003464D01*
X005737Y003571D01*
X005950Y003571D01*
X006057Y003464D01*
X005400Y003450D02*
X005400Y002950D01*
X005150Y002700D01*
X003650Y002700D01*
X003400Y002950D01*
X003400Y003450D01*
X003650Y003700D01*
X005150Y003700D01*
X005400Y003450D01*
X005150Y003700D02*
X005400Y003950D01*
X005400Y004450D01*
X005150Y004700D01*
X003650Y004700D01*
X003400Y004450D01*
X003400Y003950D01*
X003650Y003700D01*
X003063Y004230D02*
X003170Y004337D01*
X003170Y004550D01*
X003063Y004657D01*
X002850Y004657D01*
X002743Y004550D01*
X002743Y004444D01*
X002850Y004230D01*
X002529Y004230D01*
X002529Y004657D01*
X002529Y004875D02*
X002956Y004875D01*
X003170Y005088D01*
X002956Y005302D01*
X002529Y005302D01*
X003400Y005450D02*
X003400Y004950D01*
X003650Y004700D01*
X003400Y005450D02*
X003650Y005700D01*
X005150Y005700D01*
X005400Y005450D01*
X005400Y004950D01*
X005150Y004700D01*
X005729Y004937D02*
X005836Y004830D01*
X006263Y004830D01*
X006370Y004937D01*
X006370Y005150D01*
X006263Y005257D01*
X006050Y005257D01*
X006050Y005044D01*
X005836Y005257D02*
X005729Y005150D01*
X005729Y004937D01*
X005729Y005475D02*
X006370Y005902D01*
X005729Y005902D01*
X005729Y006119D02*
X005729Y006439D01*
X005836Y006546D01*
X006263Y006546D01*
X006370Y006439D01*
X006370Y006119D01*
X005729Y006119D01*
X005400Y005950D02*
X005150Y005700D01*
X005400Y005950D02*
X005400Y006450D01*
X005150Y006700D01*
X003650Y006700D01*
X003400Y006450D01*
X003400Y005950D01*
X003650Y005700D01*
X003650Y006700D02*
X003400Y006950D01*
X003400Y007450D01*
X003650Y007700D01*
X005150Y007700D01*
X005400Y007450D01*
X005400Y006950D01*
X005150Y006700D01*
X005729Y005475D02*
X006370Y005475D01*
X007850Y005250D02*
X007850Y007050D01*
X007850Y008150D01*
X008100Y008150D01*
X008400Y008150D01*
X009800Y008150D01*
X009900Y008150D01*
X009900Y007700D01*
X008300Y007700D01*
X008100Y007700D01*
X008100Y007500D01*
X008100Y007700D02*
X008100Y008050D01*
X007950Y008050D01*
X007950Y007050D01*
X007950Y005350D01*
X008100Y005350D01*
X008100Y005700D01*
X008300Y005700D01*
X009900Y005700D01*
X009900Y005250D01*
X009800Y005250D01*
X008400Y005250D01*
X008100Y005250D01*
X007850Y005250D01*
X008100Y005250D02*
X008100Y005350D01*
X007950Y007050D02*
X007850Y007050D01*
X008100Y008050D02*
X008100Y008150D01*
X006946Y010430D02*
X006946Y011071D01*
X006733Y010857D01*
X006519Y011071D01*
X006519Y010430D01*
X006302Y010430D02*
X006302Y011071D01*
X006088Y010857D01*
X005875Y011071D01*
X005875Y010430D01*
X005657Y010430D02*
X005657Y010857D01*
X005444Y011071D01*
X005230Y010857D01*
X005230Y010430D01*
X005230Y010750D02*
X005657Y010750D01*
X005875Y012030D02*
X006302Y012030D01*
X006088Y012030D02*
X006088Y012671D01*
X005875Y012457D01*
X005657Y012350D02*
X005230Y012350D01*
X005230Y013630D02*
X005657Y013630D01*
X005444Y013630D02*
X005444Y014271D01*
X005230Y014057D01*
X005875Y014164D02*
X005981Y014271D01*
X006195Y014271D01*
X006302Y014164D01*
X006302Y014057D01*
X005875Y013630D01*
X006302Y013630D01*
X006519Y013844D02*
X006733Y013630D01*
X006946Y013844D01*
X006946Y014271D01*
X006519Y014271D02*
X006519Y013844D01*
X006626Y012671D02*
X006519Y012564D01*
X006626Y012671D02*
X006839Y012671D01*
X006946Y012564D01*
X006946Y012457D01*
X006519Y012030D01*
X006946Y012030D01*
X007164Y012244D02*
X007377Y012030D01*
X007591Y012244D01*
X007591Y012671D01*
X007850Y012550D02*
X007850Y013650D01*
X008100Y013650D01*
X008400Y013650D01*
X009800Y013650D01*
X009900Y013650D01*
X009900Y013200D01*
X008300Y013200D01*
X008100Y013200D01*
X008100Y013000D01*
X008100Y013200D02*
X008100Y013550D01*
X007950Y013550D01*
X007950Y012550D01*
X007950Y010850D01*
X008100Y010850D01*
X008100Y011200D01*
X008300Y011200D01*
X009900Y011200D01*
X009900Y010750D01*
X009800Y010750D01*
X008400Y010750D01*
X008100Y010750D01*
X007850Y010750D01*
X007850Y012550D01*
X007950Y012550D01*
X007164Y012671D02*
X007164Y012244D01*
X008100Y013550D02*
X008100Y013650D01*
X008235Y015330D02*
X007915Y015330D01*
X007808Y015437D01*
X007915Y015544D01*
X008235Y015544D01*
X008235Y015650D02*
X008235Y015330D01*
X008453Y015330D02*
X008453Y015757D01*
X008453Y015544D02*
X008666Y015757D01*
X008773Y015757D01*
X008235Y015650D02*
X008128Y015757D01*
X007915Y015757D01*
X007591Y015757D02*
X007377Y015330D01*
X007164Y015757D01*
X006946Y015544D02*
X006946Y015971D01*
X006519Y015971D02*
X006519Y015544D01*
X006733Y015330D01*
X006946Y015544D01*
X006302Y015757D02*
X006302Y015864D01*
X006195Y015971D01*
X005981Y015971D01*
X005875Y015864D01*
X006302Y015757D02*
X005875Y015330D01*
X006302Y015330D01*
X005657Y015330D02*
X005230Y015330D01*
X005444Y015330D02*
X005444Y015971D01*
X005230Y015757D01*
X005337Y016930D02*
X005230Y017037D01*
X005337Y016930D02*
X005550Y016930D01*
X005657Y017037D01*
X005657Y017250D01*
X005550Y017357D01*
X005444Y017357D01*
X005230Y017250D01*
X005230Y017571D01*
X005657Y017571D01*
X005875Y017571D02*
X005875Y017144D01*
X006088Y016930D01*
X006302Y017144D01*
X006302Y017571D01*
X006088Y018630D02*
X005875Y018844D01*
X005875Y019271D01*
X005657Y019164D02*
X005657Y019057D01*
X005550Y018950D01*
X005657Y018844D01*
X005657Y018737D01*
X005550Y018630D01*
X005337Y018630D01*
X005230Y018737D01*
X005444Y018950D02*
X005550Y018950D01*
X005657Y019164D02*
X005550Y019271D01*
X005337Y019271D01*
X005230Y019164D01*
X006088Y018630D02*
X006302Y018844D01*
X006302Y019271D01*
X006519Y019164D02*
X006626Y019271D01*
X006839Y019271D01*
X006946Y019164D01*
X006946Y019057D01*
X006839Y018950D01*
X006946Y018844D01*
X006946Y018737D01*
X006839Y018630D01*
X006626Y018630D01*
X006519Y018737D01*
X006733Y018950D02*
X006839Y018950D01*
X007850Y019450D02*
X007850Y018350D01*
X007950Y018350D01*
X007950Y019350D01*
X008100Y019350D01*
X008100Y019000D01*
X008300Y019000D01*
X009900Y019000D01*
X009900Y019450D01*
X009800Y019450D01*
X008400Y019450D01*
X008100Y019450D01*
X007850Y019450D01*
X008100Y019450D02*
X008100Y019350D01*
X008100Y019000D02*
X008100Y018800D01*
X007950Y018350D02*
X007950Y016650D01*
X008100Y016650D01*
X008100Y017000D01*
X008300Y017000D01*
X009900Y017000D01*
X009900Y016550D01*
X009800Y016550D01*
X008400Y016550D01*
X008100Y016550D01*
X007850Y016550D01*
X007850Y018350D01*
X008100Y016650D02*
X008100Y016550D01*
X009630Y020530D02*
X009630Y020957D01*
X009950Y020957D01*
X010057Y020850D01*
X010057Y020530D01*
X010275Y020637D02*
X010381Y020530D01*
X010595Y020530D01*
X010702Y020637D01*
X010702Y020850D01*
X010595Y020957D01*
X010381Y020957D01*
X010275Y020850D01*
X010275Y020637D01*
X010919Y020957D02*
X011133Y020957D01*
X011026Y021064D02*
X011026Y020637D01*
X011133Y020530D01*
X011349Y020530D02*
X011562Y020530D01*
X011456Y020530D02*
X011456Y020957D01*
X011349Y020957D01*
X011456Y021171D02*
X011456Y021277D01*
X011885Y020637D02*
X011885Y020530D01*
X011992Y020530D01*
X011992Y020637D01*
X011885Y020637D01*
X011992Y020530D02*
X011778Y020316D01*
X012853Y020530D02*
X013280Y020957D01*
X013280Y021064D01*
X013173Y021171D01*
X012960Y021171D01*
X012853Y021064D01*
X012853Y020530D02*
X013280Y020530D01*
X013497Y020637D02*
X013924Y021064D01*
X013924Y020637D01*
X013818Y020530D01*
X013604Y020530D01*
X013497Y020637D01*
X013497Y021064D01*
X013604Y021171D01*
X013818Y021171D01*
X013924Y021064D01*
X014142Y020957D02*
X014355Y021171D01*
X014355Y020530D01*
X014142Y020530D02*
X014569Y020530D01*
X014786Y020850D02*
X015213Y020850D01*
X015107Y020530D02*
X015107Y021171D01*
X014786Y020850D01*
X014600Y022250D02*
X014500Y022250D01*
X014500Y022700D01*
X016100Y022700D01*
X016300Y022700D01*
X016300Y022900D01*
X016300Y022700D02*
X016300Y022350D01*
X016450Y022350D01*
X016450Y023350D01*
X016450Y025050D01*
X016300Y025050D01*
X016300Y024700D01*
X016100Y024700D01*
X014500Y024700D01*
X014500Y025150D01*
X014600Y025150D01*
X016000Y025150D01*
X016300Y025150D01*
X016550Y025150D01*
X016550Y023350D01*
X016550Y022250D01*
X016300Y022250D01*
X016000Y022250D01*
X014600Y022250D01*
X016300Y022250D02*
X016300Y022350D01*
X016450Y023350D02*
X016550Y023350D01*
X016300Y025050D02*
X016300Y025150D01*
X015514Y026037D02*
X015514Y026464D01*
X015408Y026571D01*
X015087Y026571D01*
X015087Y025930D01*
X015408Y025930D01*
X015514Y026037D01*
X014870Y025930D02*
X014656Y026144D01*
X014763Y026144D02*
X014443Y026144D01*
X014443Y025930D02*
X014443Y026571D01*
X014763Y026571D01*
X014870Y026464D01*
X014870Y026250D01*
X014763Y026144D01*
X014225Y026250D02*
X013798Y026250D01*
X013798Y026357D02*
X013798Y025930D01*
X013581Y026037D02*
X013581Y026464D01*
X013474Y026571D01*
X013260Y026571D01*
X013154Y026464D01*
X013154Y026037D01*
X013260Y025930D01*
X013474Y025930D01*
X013581Y026037D01*
X013798Y026357D02*
X014012Y026571D01*
X014225Y026357D01*
X014225Y025930D01*
X012936Y026037D02*
X012829Y025930D01*
X012509Y025930D01*
X012509Y026571D01*
X012829Y026571D01*
X012936Y026464D01*
X012936Y026357D01*
X012829Y026250D01*
X012509Y026250D01*
X012829Y026250D02*
X012936Y026144D01*
X012936Y026037D01*
X011647Y026571D02*
X011220Y026571D01*
X011434Y026571D02*
X011434Y025930D01*
X011003Y026037D02*
X011003Y026571D01*
X011003Y026037D02*
X010896Y025930D01*
X010682Y025930D01*
X010575Y026037D01*
X010575Y026571D01*
X010358Y026464D02*
X010358Y026037D01*
X010251Y025930D01*
X010038Y025930D01*
X009931Y026037D01*
X009931Y026464D01*
X010038Y026571D01*
X010251Y026571D01*
X010358Y026464D01*
X009713Y026571D02*
X009286Y026144D01*
X009393Y026250D02*
X009713Y025930D01*
X009286Y025930D02*
X009286Y026571D01*
X009069Y026357D02*
X009069Y025930D01*
X009069Y026250D02*
X008642Y026250D01*
X008642Y026357D02*
X008642Y025930D01*
X008424Y025930D02*
X007997Y025930D01*
X007997Y026571D01*
X008424Y026571D01*
X008642Y026357D02*
X008855Y026571D01*
X009069Y026357D01*
X008211Y026250D02*
X007997Y026250D01*
X007780Y026250D02*
X007780Y026464D01*
X007673Y026571D01*
X007353Y026571D01*
X007353Y025930D01*
X007353Y026144D02*
X007673Y026144D01*
X007780Y026250D01*
X007566Y026144D02*
X007780Y025930D01*
X007135Y026037D02*
X007028Y025930D01*
X006708Y025930D01*
X006708Y026571D01*
X007028Y026571D01*
X007135Y026464D01*
X007135Y026357D01*
X007028Y026250D01*
X006708Y026250D01*
X007028Y026250D02*
X007135Y026144D01*
X007135Y026037D01*
X006855Y025371D02*
X006855Y024730D01*
X007068Y024730D02*
X006641Y024730D01*
X006426Y024730D02*
X006319Y024730D01*
X006319Y024837D01*
X006426Y024837D01*
X006426Y024730D01*
X006102Y024730D02*
X005675Y024730D01*
X005888Y024730D02*
X005888Y025371D01*
X005675Y025157D01*
X005457Y025157D02*
X005244Y024730D01*
X005030Y025157D01*
X004988Y025930D02*
X004988Y026571D01*
X004775Y026571D02*
X005202Y026571D01*
X005419Y026571D02*
X005846Y025930D01*
X005419Y025930D02*
X005846Y026571D01*
X006855Y025371D02*
X006641Y025157D01*
X007850Y025150D02*
X007850Y024050D01*
X007950Y024050D01*
X007950Y025050D01*
X008100Y025050D01*
X008100Y024700D01*
X008300Y024700D01*
X009900Y024700D01*
X009900Y025150D01*
X009800Y025150D01*
X008400Y025150D01*
X008100Y025150D01*
X007850Y025150D01*
X008100Y025150D02*
X008100Y025050D01*
X008100Y024700D02*
X008100Y024500D01*
X007950Y024050D02*
X007950Y022350D01*
X008100Y022350D01*
X008100Y022700D01*
X008300Y022700D01*
X009900Y022700D01*
X009900Y022250D01*
X009800Y022250D01*
X008400Y022250D01*
X008100Y022250D01*
X007850Y022250D01*
X007850Y024050D01*
X008100Y022350D02*
X008100Y022250D01*
X004557Y025930D02*
X004557Y026357D01*
X004344Y026571D01*
X004130Y026357D01*
X004130Y025930D01*
X004130Y026250D02*
X004557Y026250D01*
X014500Y019450D02*
X014500Y019000D01*
X016100Y019000D01*
X016300Y019000D01*
X016300Y019350D01*
X016450Y019350D01*
X016450Y017650D01*
X016550Y017650D01*
X016550Y016550D01*
X016300Y016550D01*
X016000Y016550D01*
X014600Y016550D01*
X014500Y016550D01*
X014500Y017000D01*
X016100Y017000D01*
X016300Y017000D01*
X016300Y017200D01*
X016300Y017000D02*
X016300Y016650D01*
X016450Y016650D01*
X016450Y017650D01*
X016550Y017650D02*
X016550Y019450D01*
X016300Y019450D01*
X016000Y019450D01*
X014600Y019450D01*
X014500Y019450D01*
X016300Y019450D02*
X016300Y019350D01*
X016300Y016650D02*
X016300Y016550D01*
X016300Y013650D02*
X016000Y013650D01*
X014600Y013650D01*
X014500Y013650D01*
X014500Y013200D01*
X016100Y013200D01*
X016300Y013200D01*
X016300Y013550D01*
X016450Y013550D01*
X016450Y011850D01*
X016550Y011850D01*
X016550Y010750D01*
X016300Y010750D01*
X016000Y010750D01*
X014600Y010750D01*
X014500Y010750D01*
X014500Y011200D01*
X016100Y011200D01*
X016300Y011200D01*
X016300Y011400D01*
X016300Y011200D02*
X016300Y010850D01*
X016450Y010850D01*
X016450Y011850D01*
X016550Y011850D02*
X016550Y013650D01*
X016300Y013650D01*
X016300Y013550D01*
X016300Y010850D02*
X016300Y010750D01*
X016300Y008150D02*
X016300Y008050D01*
X008100Y010750D02*
X008100Y010850D01*
X002602Y007771D02*
X002602Y007344D01*
X002388Y007130D01*
X002175Y007344D01*
X002175Y007771D01*
X001957Y007771D02*
X001530Y007771D01*
X001530Y007450D01*
X001744Y007557D01*
X001850Y007557D01*
X001957Y007450D01*
X001957Y007237D01*
X001850Y007130D01*
X001637Y007130D01*
X001530Y007237D01*
D12*
X002750Y006000D03*
X002750Y003400D03*
X006050Y004300D03*
X006050Y007100D03*
D13*
X005950Y007350D03*
X002850Y006250D03*
X002850Y003150D03*
X005950Y004050D03*
D14*
X002978Y006667D02*
X002930Y006618D01*
X002881Y006618D01*
X002833Y006715D02*
X002978Y006715D01*
X002978Y006667D02*
X002978Y006908D01*
X002785Y006908D02*
X002785Y006763D01*
X002833Y006715D01*
X002684Y006763D02*
X002684Y006860D01*
X002635Y006908D01*
X002490Y006908D01*
X002490Y007005D02*
X002490Y006715D01*
X002635Y006715D01*
X002684Y006763D01*
X002389Y006715D02*
X002389Y007005D01*
X002389Y006908D02*
X002244Y006908D01*
X002195Y006860D01*
X002195Y006763D01*
X002244Y006715D01*
X002389Y006715D01*
X002094Y006715D02*
X002094Y006860D01*
X002046Y006908D01*
X001901Y006908D01*
X001901Y006715D01*
X001800Y006715D02*
X001654Y006715D01*
X001606Y006763D01*
X001654Y006812D01*
X001800Y006812D01*
X001800Y006860D02*
X001800Y006715D01*
X001800Y006860D02*
X001751Y006908D01*
X001654Y006908D01*
X001506Y006908D02*
X001410Y006908D01*
X001458Y006957D02*
X001458Y006763D01*
X001506Y006715D01*
X001308Y006763D02*
X001260Y006812D01*
X001163Y006812D01*
X001115Y006860D01*
X001163Y006908D01*
X001308Y006908D01*
X001308Y006763D02*
X001260Y006715D01*
X001115Y006715D01*
D15*
X001640Y008265D02*
X002349Y008265D01*
X001640Y008265D02*
X001599Y008294D01*
X001560Y008326D01*
X001523Y008361D01*
X001490Y008398D01*
X001459Y008438D01*
X001432Y008480D01*
X001407Y008524D01*
X001387Y008570D01*
X001370Y008618D01*
X001356Y008666D01*
X001347Y008716D01*
X001341Y008766D01*
X001339Y008816D01*
X001341Y008866D01*
X001347Y008916D01*
X001356Y008966D01*
X001370Y009014D01*
X001387Y009062D01*
X001407Y009108D01*
X001432Y009152D01*
X001459Y009194D01*
X001490Y009234D01*
X001523Y009271D01*
X001560Y009306D01*
X001599Y009338D01*
X001640Y009367D01*
X001601Y009328D02*
X001601Y009603D01*
X001128Y009643D02*
X004829Y009643D01*
X004829Y019957D01*
X004199Y019957D01*
X004200Y019957D02*
X004198Y019985D01*
X004193Y020013D01*
X004183Y020040D01*
X004171Y020066D01*
X004155Y020089D01*
X004136Y020110D01*
X004115Y020129D01*
X004092Y020145D01*
X004066Y020157D01*
X004039Y020167D01*
X004011Y020172D01*
X003983Y020174D01*
X003955Y020172D01*
X003927Y020167D01*
X003900Y020157D01*
X003875Y020145D01*
X003851Y020129D01*
X003830Y020110D01*
X003811Y020089D01*
X003795Y020066D01*
X003783Y020040D01*
X003773Y020013D01*
X003768Y019985D01*
X003766Y019957D01*
X001128Y019957D01*
X001128Y009643D01*
X002348Y009367D02*
X002389Y009338D01*
X002428Y009306D01*
X002465Y009271D01*
X002498Y009234D01*
X002529Y009194D01*
X002556Y009152D01*
X002581Y009108D01*
X002601Y009062D01*
X002618Y009014D01*
X002632Y008966D01*
X002641Y008916D01*
X002647Y008866D01*
X002649Y008816D01*
X002647Y008766D01*
X002641Y008716D01*
X002632Y008666D01*
X002618Y008618D01*
X002601Y008570D01*
X002581Y008524D01*
X002556Y008480D01*
X002529Y008438D01*
X002498Y008398D01*
X002465Y008361D01*
X002428Y008326D01*
X002389Y008294D01*
X002348Y008265D01*
X002388Y009328D02*
X002388Y009603D01*
X001089Y013973D02*
X000420Y013973D01*
X000420Y015627D01*
X001089Y015627D01*
X001601Y019997D02*
X001601Y020272D01*
X002348Y020233D02*
X002389Y020262D01*
X002428Y020294D01*
X002465Y020329D01*
X002498Y020366D01*
X002529Y020406D01*
X002556Y020448D01*
X002581Y020492D01*
X002601Y020538D01*
X002618Y020586D01*
X002632Y020634D01*
X002641Y020684D01*
X002647Y020734D01*
X002649Y020784D01*
X002647Y020834D01*
X002641Y020884D01*
X002632Y020934D01*
X002618Y020982D01*
X002601Y021030D01*
X002581Y021076D01*
X002556Y021120D01*
X002529Y021162D01*
X002498Y021202D01*
X002465Y021239D01*
X002428Y021274D01*
X002389Y021306D01*
X002348Y021335D01*
X002349Y021335D02*
X001640Y021335D01*
X001599Y021306D01*
X001560Y021274D01*
X001523Y021239D01*
X001490Y021202D01*
X001459Y021162D01*
X001432Y021120D01*
X001407Y021076D01*
X001387Y021030D01*
X001370Y020982D01*
X001356Y020934D01*
X001347Y020884D01*
X001341Y020834D01*
X001339Y020784D01*
X001341Y020734D01*
X001347Y020684D01*
X001356Y020634D01*
X001370Y020586D01*
X001387Y020538D01*
X001407Y020492D01*
X001432Y020448D01*
X001459Y020406D01*
X001490Y020366D01*
X001523Y020329D01*
X001560Y020294D01*
X001599Y020262D01*
X001640Y020233D01*
X002388Y020272D02*
X002388Y019997D01*
X010400Y002650D02*
X010443Y002704D01*
X010489Y002756D01*
X010538Y002805D01*
X010590Y002852D01*
X010644Y002895D01*
X010700Y002936D01*
X010759Y002973D01*
X010819Y003007D01*
X010882Y003037D01*
X010945Y003064D01*
X011011Y003088D01*
X011077Y003108D01*
X011145Y003124D01*
X011213Y003136D01*
X011282Y003144D01*
X011351Y003149D01*
X011421Y003150D01*
X011490Y003147D01*
X011559Y003140D01*
X011627Y003129D01*
X011695Y003115D01*
X011762Y003096D01*
X011828Y003074D01*
X011893Y003049D01*
X011956Y003020D01*
X012017Y002987D01*
X012076Y002951D01*
X012133Y002912D01*
X012189Y002870D01*
X012241Y002825D01*
X012291Y002777D01*
X012338Y002726D01*
X012383Y002672D01*
X012424Y002617D01*
X012462Y002559D01*
X012497Y002499D01*
X012529Y002437D01*
X012557Y002374D01*
X012581Y002309D01*
X012602Y002243D01*
X012619Y002175D01*
X012633Y002107D01*
X012642Y002038D01*
X012648Y001969D01*
X012650Y001900D01*
X012648Y001831D01*
X012642Y001762D01*
X012633Y001693D01*
X012619Y001625D01*
X012602Y001557D01*
X012581Y001491D01*
X012557Y001426D01*
X012529Y001363D01*
X012497Y001301D01*
X012462Y001241D01*
X012424Y001183D01*
X012383Y001128D01*
X012338Y001074D01*
X012291Y001023D01*
X012241Y000975D01*
X012189Y000930D01*
X012133Y000888D01*
X012076Y000849D01*
X012017Y000813D01*
X011956Y000780D01*
X011893Y000751D01*
X011828Y000726D01*
X011762Y000704D01*
X011695Y000685D01*
X011627Y000671D01*
X011559Y000660D01*
X011490Y000653D01*
X011421Y000650D01*
X011351Y000651D01*
X011282Y000656D01*
X011213Y000664D01*
X011145Y000676D01*
X011077Y000692D01*
X011011Y000712D01*
X010945Y000736D01*
X010882Y000763D01*
X010819Y000793D01*
X010759Y000827D01*
X010700Y000864D01*
X010644Y000905D01*
X010590Y000948D01*
X010538Y000995D01*
X010489Y001044D01*
X010443Y001096D01*
X010400Y001150D01*
X015200Y001150D02*
X015157Y001096D01*
X015111Y001044D01*
X015062Y000995D01*
X015010Y000948D01*
X014956Y000905D01*
X014900Y000864D01*
X014841Y000827D01*
X014781Y000793D01*
X014718Y000763D01*
X014655Y000736D01*
X014589Y000712D01*
X014523Y000692D01*
X014455Y000676D01*
X014387Y000664D01*
X014318Y000656D01*
X014249Y000651D01*
X014179Y000650D01*
X014110Y000653D01*
X014041Y000660D01*
X013973Y000671D01*
X013905Y000685D01*
X013838Y000704D01*
X013772Y000726D01*
X013707Y000751D01*
X013644Y000780D01*
X013583Y000813D01*
X013524Y000849D01*
X013467Y000888D01*
X013411Y000930D01*
X013359Y000975D01*
X013309Y001023D01*
X013262Y001074D01*
X013217Y001128D01*
X013176Y001183D01*
X013138Y001241D01*
X013103Y001301D01*
X013071Y001363D01*
X013043Y001426D01*
X013019Y001491D01*
X012998Y001557D01*
X012981Y001625D01*
X012967Y001693D01*
X012958Y001762D01*
X012952Y001831D01*
X012950Y001900D01*
X012952Y001969D01*
X012958Y002038D01*
X012967Y002107D01*
X012981Y002175D01*
X012998Y002243D01*
X013019Y002309D01*
X013043Y002374D01*
X013071Y002437D01*
X013103Y002499D01*
X013138Y002559D01*
X013176Y002617D01*
X013217Y002672D01*
X013262Y002726D01*
X013309Y002777D01*
X013359Y002825D01*
X013411Y002870D01*
X013467Y002912D01*
X013524Y002951D01*
X013583Y002987D01*
X013644Y003020D01*
X013707Y003049D01*
X013772Y003074D01*
X013838Y003096D01*
X013905Y003115D01*
X013973Y003129D01*
X014041Y003140D01*
X014110Y003147D01*
X014179Y003150D01*
X014249Y003149D01*
X014318Y003144D01*
X014387Y003136D01*
X014455Y003124D01*
X014523Y003108D01*
X014589Y003088D01*
X014655Y003064D01*
X014718Y003037D01*
X014781Y003007D01*
X014841Y002973D01*
X014900Y002936D01*
X014956Y002895D01*
X015010Y002852D01*
X015062Y002805D01*
X015111Y002756D01*
X015157Y002704D01*
X015200Y002650D01*
X019771Y005082D02*
X019771Y025318D01*
X023472Y025318D01*
X023472Y005082D01*
X020834Y005082D01*
X020832Y005054D01*
X020827Y005026D01*
X020817Y004999D01*
X020805Y004973D01*
X020789Y004950D01*
X020770Y004929D01*
X020749Y004910D01*
X020726Y004894D01*
X020700Y004882D01*
X020673Y004872D01*
X020645Y004867D01*
X020617Y004865D01*
X020589Y004867D01*
X020561Y004872D01*
X020534Y004882D01*
X020509Y004894D01*
X020485Y004910D01*
X020464Y004929D01*
X020445Y004950D01*
X020429Y004974D01*
X020417Y004999D01*
X020407Y005026D01*
X020402Y005054D01*
X020400Y005082D01*
X020401Y005082D02*
X019771Y005082D01*
X022212Y005043D02*
X022212Y004767D01*
X022960Y004806D02*
X023001Y004777D01*
X023040Y004745D01*
X023077Y004710D01*
X023110Y004673D01*
X023141Y004633D01*
X023168Y004591D01*
X023193Y004547D01*
X023213Y004501D01*
X023230Y004453D01*
X023244Y004405D01*
X023253Y004355D01*
X023259Y004305D01*
X023261Y004255D01*
X023259Y004205D01*
X023253Y004155D01*
X023244Y004105D01*
X023230Y004057D01*
X023213Y004009D01*
X023193Y003963D01*
X023168Y003919D01*
X023141Y003877D01*
X023110Y003837D01*
X023077Y003800D01*
X023040Y003765D01*
X023001Y003733D01*
X022960Y003704D01*
X022251Y003704D01*
X022252Y003704D02*
X022211Y003733D01*
X022172Y003765D01*
X022135Y003800D01*
X022102Y003837D01*
X022071Y003877D01*
X022044Y003919D01*
X022019Y003963D01*
X021999Y004009D01*
X021982Y004057D01*
X021968Y004105D01*
X021959Y004155D01*
X021953Y004205D01*
X021951Y004255D01*
X021953Y004305D01*
X021959Y004355D01*
X021968Y004405D01*
X021982Y004453D01*
X021999Y004501D01*
X022019Y004547D01*
X022044Y004591D01*
X022071Y004633D01*
X022102Y004673D01*
X022135Y004710D01*
X022172Y004745D01*
X022211Y004777D01*
X022252Y004806D01*
X022999Y004767D02*
X022999Y005043D01*
X023511Y014373D02*
X024180Y014373D01*
X024180Y016027D01*
X023511Y016027D01*
X022999Y025357D02*
X022999Y025633D01*
X022252Y025594D02*
X022211Y025623D01*
X022172Y025655D01*
X022135Y025690D01*
X022102Y025727D01*
X022071Y025767D01*
X022044Y025809D01*
X022019Y025853D01*
X021999Y025899D01*
X021982Y025947D01*
X021968Y025995D01*
X021959Y026045D01*
X021953Y026095D01*
X021951Y026145D01*
X021953Y026195D01*
X021959Y026245D01*
X021968Y026295D01*
X021982Y026343D01*
X021999Y026391D01*
X022019Y026437D01*
X022044Y026481D01*
X022071Y026523D01*
X022102Y026563D01*
X022135Y026600D01*
X022172Y026635D01*
X022211Y026667D01*
X022252Y026696D01*
X022251Y026696D02*
X022960Y026696D01*
X023001Y026667D01*
X023040Y026635D01*
X023077Y026600D01*
X023110Y026563D01*
X023141Y026523D01*
X023168Y026481D01*
X023193Y026437D01*
X023213Y026391D01*
X023230Y026343D01*
X023244Y026295D01*
X023253Y026245D01*
X023259Y026195D01*
X023261Y026145D01*
X023259Y026095D01*
X023253Y026045D01*
X023244Y025995D01*
X023230Y025947D01*
X023213Y025899D01*
X023193Y025853D01*
X023168Y025809D01*
X023141Y025767D01*
X023110Y025727D01*
X023077Y025690D01*
X023040Y025655D01*
X023001Y025623D01*
X022960Y025594D01*
X022212Y025633D02*
X022212Y025357D01*
D16*
X019430Y024740D02*
X018970Y024740D01*
X019200Y024510D01*
X019200Y024817D01*
X019123Y024356D02*
X019046Y024356D01*
X018970Y024279D01*
X018970Y024126D01*
X019046Y024049D01*
X019200Y023896D02*
X019200Y023589D01*
X019277Y023435D02*
X019200Y023359D01*
X019200Y023128D01*
X019353Y023128D01*
X019430Y023205D01*
X019430Y023359D01*
X019353Y023435D01*
X019277Y023435D01*
X019046Y023282D02*
X019200Y023128D01*
X019277Y022975D02*
X019200Y022898D01*
X019200Y022668D01*
X019353Y022668D01*
X019430Y022745D01*
X019430Y022898D01*
X019353Y022975D01*
X019277Y022975D01*
X019046Y022821D02*
X019200Y022668D01*
X019200Y022515D02*
X019353Y022515D01*
X019430Y022438D01*
X019430Y022284D01*
X019353Y022208D01*
X019200Y022208D02*
X019123Y022361D01*
X019123Y022438D01*
X019200Y022515D01*
X018970Y022515D02*
X018970Y022208D01*
X019200Y022208D01*
X019200Y022054D02*
X019353Y022054D01*
X019430Y021977D01*
X019430Y021824D01*
X019353Y021747D01*
X019200Y021747D02*
X019123Y021901D01*
X019123Y021977D01*
X019200Y022054D01*
X018970Y022054D02*
X018970Y021747D01*
X019200Y021747D01*
X019046Y022821D02*
X018970Y022975D01*
X019046Y023282D02*
X018970Y023435D01*
X019430Y024049D02*
X019123Y024356D01*
X019430Y024356D02*
X019430Y024049D01*
X019430Y007067D02*
X018970Y006760D01*
X018970Y006606D02*
X018970Y006299D01*
X018970Y006453D02*
X019430Y006453D01*
X019430Y006760D02*
X018970Y007067D01*
X019123Y006146D02*
X019430Y006146D01*
X019200Y006146D02*
X019200Y005839D01*
X019123Y005839D02*
X018970Y005992D01*
X019123Y006146D01*
X019123Y005839D02*
X019430Y005839D01*
X019487Y001130D02*
X019487Y000670D01*
X019334Y000823D01*
X019180Y000670D01*
X019180Y001130D01*
X019027Y001054D02*
X019027Y000900D01*
X018950Y000823D01*
X018720Y000823D01*
X018720Y000670D02*
X018720Y001130D01*
X018950Y001130D01*
X019027Y001054D01*
X019641Y001130D02*
X019641Y000670D01*
X019641Y000823D02*
X019871Y000823D01*
X019948Y000900D01*
X019948Y001054D01*
X019871Y001130D01*
X019641Y001130D01*
X019794Y000823D02*
X019948Y000670D01*
X020101Y000593D02*
X020408Y000593D01*
X020562Y000747D02*
X020638Y000670D01*
X020792Y000670D01*
X020868Y000747D01*
X020868Y000823D01*
X020792Y000900D01*
X020638Y000900D01*
X020562Y000977D01*
X020562Y001054D01*
X020638Y001130D01*
X020792Y001130D01*
X020868Y001054D01*
X021022Y001130D02*
X021022Y000670D01*
X021175Y000823D01*
X021329Y000670D01*
X021329Y001130D01*
X000930Y009897D02*
X000853Y009820D01*
X000546Y009820D01*
X000470Y009897D01*
X000470Y010050D01*
X000546Y010127D01*
X000853Y010127D01*
X000930Y010050D01*
X000930Y009897D01*
X000853Y010280D02*
X000930Y010357D01*
X000930Y010511D01*
X000853Y010587D01*
X000470Y010587D01*
X000470Y010741D02*
X000470Y011048D01*
X000470Y010894D02*
X000930Y010894D01*
X000853Y010280D02*
X000470Y010280D01*
X000470Y017320D02*
X000700Y017320D01*
X000623Y017473D01*
X000623Y017550D01*
X000700Y017627D01*
X000853Y017627D01*
X000930Y017550D01*
X000930Y017397D01*
X000853Y017320D01*
X000853Y017780D02*
X000930Y017857D01*
X000930Y018011D01*
X000853Y018087D01*
X000700Y018087D01*
X000623Y018011D01*
X000623Y017934D01*
X000700Y017780D01*
X000470Y017780D01*
X000470Y018087D01*
X000700Y018241D02*
X000700Y018471D01*
X000777Y018548D01*
X000853Y018548D01*
X000930Y018471D01*
X000930Y018318D01*
X000853Y018241D01*
X000700Y018241D01*
X000546Y018394D01*
X000470Y018548D01*
X000700Y018701D02*
X000700Y018931D01*
X000777Y019008D01*
X000853Y019008D01*
X000930Y018931D01*
X000930Y018778D01*
X000853Y018701D01*
X000700Y018701D01*
X000546Y018855D01*
X000470Y019008D01*
X000700Y019162D02*
X000700Y019468D01*
X000623Y019622D02*
X000470Y019775D01*
X000930Y019775D01*
X000930Y019622D02*
X000930Y019929D01*
X000930Y020082D02*
X000623Y020389D01*
X000546Y020389D01*
X000470Y020313D01*
X000470Y020159D01*
X000546Y020082D01*
X000930Y020082D02*
X000930Y020389D01*
X000470Y017627D02*
X000470Y017320D01*
D17*
X010200Y016850D02*
X014200Y016850D01*
X014200Y018000D02*
X010200Y018000D01*
X010200Y019150D02*
X014200Y019150D01*
X014200Y022550D02*
X010200Y022550D01*
X010200Y023700D02*
X014200Y023700D01*
X014200Y024850D02*
X010200Y024850D01*
X010200Y013350D02*
X014200Y013350D01*
X014200Y012200D02*
X010200Y012200D01*
X010200Y011050D02*
X014200Y011050D01*
X014200Y007850D02*
X010200Y007850D01*
X010200Y006700D02*
X014200Y006700D01*
X014200Y005550D02*
X010200Y005550D01*
D18*
X012200Y005950D03*
X012200Y007450D03*
X012200Y011450D03*
X012200Y012950D03*
X012200Y017250D03*
X012200Y018750D03*
X012200Y022950D03*
X012200Y024450D03*
D19*
X014300Y023700D03*
X010100Y023700D03*
X010100Y018000D03*
X014300Y018000D03*
X014300Y012200D03*
X010100Y012200D03*
X010100Y006700D03*
X014300Y006700D03*
D20*
X016500Y007250D03*
X016500Y012750D03*
X016500Y018550D03*
X016500Y024250D03*
X007900Y023150D03*
X007900Y017450D03*
X007900Y011650D03*
X007900Y006150D03*
D21*
X008025Y005300D03*
X008025Y010800D03*
X008025Y016600D03*
X008025Y022300D03*
D22*
X009950Y022650D03*
X009950Y024750D03*
X014450Y024750D03*
X014450Y022650D03*
X014450Y019050D03*
X014450Y016950D03*
X014450Y013250D03*
X014450Y011150D03*
X014450Y007750D03*
X014450Y005650D03*
X009950Y005650D03*
X009950Y007750D03*
X009950Y011150D03*
X009950Y013250D03*
X009950Y016950D03*
X009950Y019050D03*
D23*
X008250Y018000D03*
X008250Y023700D03*
X016150Y023700D03*
X016150Y018000D03*
X016150Y012200D03*
X016150Y006700D03*
X008250Y006700D03*
X008250Y012200D03*
D24*
X009100Y011275D03*
X009100Y013125D03*
X009100Y017075D03*
X009100Y018925D03*
X009100Y022775D03*
X009100Y024625D03*
X015300Y024625D03*
X015300Y022775D03*
X015300Y018925D03*
X015300Y017075D03*
X015300Y013125D03*
X015300Y011275D03*
X015300Y007625D03*
X015300Y005775D03*
X009100Y005775D03*
X009100Y007625D03*
D25*
X016135Y008435D02*
X016135Y009066D01*
X016555Y009066D01*
X016345Y008750D02*
X016135Y008750D01*
X016780Y008750D02*
X017200Y008750D01*
X017095Y008435D02*
X017095Y009066D01*
X016780Y008750D01*
X016885Y013935D02*
X016780Y014040D01*
X016885Y013935D02*
X017095Y013935D01*
X017200Y014040D01*
X017200Y014145D01*
X017095Y014250D01*
X016990Y014250D01*
X017095Y014250D02*
X017200Y014355D01*
X017200Y014460D01*
X017095Y014566D01*
X016885Y014566D01*
X016780Y014460D01*
X016555Y014566D02*
X016135Y014566D01*
X016135Y013935D01*
X016135Y014250D02*
X016345Y014250D01*
X016135Y019735D02*
X016135Y020366D01*
X016555Y020366D01*
X016780Y020260D02*
X016885Y020366D01*
X017095Y020366D01*
X017200Y020260D01*
X017200Y020155D01*
X016780Y019735D01*
X017200Y019735D01*
X016345Y020050D02*
X016135Y020050D01*
X016235Y025435D02*
X016235Y026066D01*
X016655Y026066D01*
X016880Y025855D02*
X017090Y026066D01*
X017090Y025435D01*
X016880Y025435D02*
X017300Y025435D01*
X016445Y025750D02*
X016235Y025750D01*
D26*
X003150Y007450D02*
X003150Y006950D01*
X010400Y002650D02*
X010400Y001150D01*
X015200Y001150D02*
X015200Y002650D01*
X018700Y002150D02*
X018700Y001650D01*
X018950Y001400D01*
X019450Y001400D01*
X019700Y001650D01*
X019950Y001400D01*
X020450Y001400D01*
X020700Y001650D01*
X020700Y002150D01*
X020450Y002400D01*
X019950Y002400D01*
X019700Y002150D01*
X019450Y002400D01*
X018950Y002400D01*
X018700Y002150D01*
D27*
X018770Y002645D02*
X018695Y002720D01*
X018770Y002645D02*
X018845Y002645D01*
X018920Y002720D01*
X018920Y003095D01*
X018845Y003095D02*
X018995Y003095D01*
X019155Y003095D02*
X019381Y003095D01*
X019456Y003020D01*
X019456Y002870D01*
X019381Y002795D01*
X019155Y002795D01*
X019155Y002645D02*
X019155Y003095D01*
X019616Y003020D02*
X019616Y002945D01*
X019691Y002870D01*
X019841Y002870D01*
X019916Y002795D01*
X019916Y002720D01*
X019841Y002645D01*
X019691Y002645D01*
X019616Y002720D01*
X019616Y002795D01*
X019691Y002870D01*
X019841Y002870D02*
X019916Y002945D01*
X019916Y003020D01*
X019841Y003095D01*
X019691Y003095D01*
X019616Y003020D01*
X017617Y002585D02*
X017317Y002285D01*
X017392Y002360D02*
X017617Y002135D01*
X017317Y002135D02*
X017317Y002585D01*
X017156Y002510D02*
X017156Y002210D01*
X017081Y002135D01*
X016931Y002135D01*
X016856Y002210D01*
X016856Y002510D01*
X016931Y002585D01*
X017081Y002585D01*
X017156Y002510D01*
X016696Y002510D02*
X016696Y002360D01*
X016621Y002285D01*
X016396Y002285D01*
X016546Y002285D02*
X016696Y002135D01*
X016396Y002135D02*
X016396Y002585D01*
X016621Y002585D01*
X016696Y002510D01*
X016236Y002585D02*
X016236Y002135D01*
X016086Y002285D01*
X015935Y002135D01*
X015935Y002585D01*
X015775Y002510D02*
X015775Y002360D01*
X015700Y002285D01*
X015475Y002285D01*
X015475Y002135D02*
X015475Y002585D01*
X015700Y002585D01*
X015775Y002510D01*
X015785Y001515D02*
X015560Y001515D01*
X015485Y001440D01*
X015485Y001290D01*
X015560Y001215D01*
X015785Y001215D01*
X015785Y001140D02*
X015785Y001515D01*
X015945Y001515D02*
X015945Y001215D01*
X015945Y001365D02*
X016096Y001515D01*
X016171Y001515D01*
X016329Y001440D02*
X016329Y001290D01*
X016404Y001215D01*
X016554Y001215D01*
X016629Y001365D02*
X016329Y001365D01*
X016329Y001440D02*
X016404Y001515D01*
X016554Y001515D01*
X016629Y001440D01*
X016629Y001365D01*
X016789Y001365D02*
X017090Y001365D01*
X017090Y001440D01*
X017015Y001515D01*
X016865Y001515D01*
X016789Y001440D01*
X016789Y001290D01*
X016865Y001215D01*
X017015Y001215D01*
X017250Y001215D02*
X017250Y001515D01*
X017475Y001515D01*
X017550Y001440D01*
X017550Y001215D01*
X015785Y001140D02*
X015710Y001065D01*
X015635Y001065D01*
X015521Y003575D02*
X015295Y003725D01*
X015521Y003875D01*
X015295Y004025D02*
X015295Y003575D01*
X015135Y003575D02*
X014835Y003575D01*
X014985Y003575D02*
X014985Y004025D01*
X014835Y003875D01*
X015304Y004325D02*
X015304Y004775D01*
X015529Y004775D01*
X015604Y004700D01*
X015604Y004550D01*
X015529Y004475D01*
X015304Y004475D01*
X015454Y004475D02*
X015604Y004325D01*
X015765Y004325D02*
X016065Y004625D01*
X016065Y004700D01*
X015990Y004775D01*
X015840Y004775D01*
X015765Y004700D01*
X015765Y004325D02*
X016065Y004325D01*
X011386Y004325D02*
X011085Y004325D01*
X011236Y004325D02*
X011236Y004775D01*
X011085Y004625D01*
X010925Y004550D02*
X010850Y004475D01*
X010625Y004475D01*
X010625Y004325D02*
X010625Y004775D01*
X010850Y004775D01*
X010925Y004700D01*
X010925Y004550D01*
X010775Y004475D02*
X010925Y004325D01*
X010721Y003875D02*
X010495Y003725D01*
X010721Y003575D01*
X010495Y003575D02*
X010495Y004025D01*
X010185Y004025D02*
X010185Y003575D01*
X010035Y003575D02*
X010335Y003575D01*
X010035Y003875D02*
X010185Y004025D01*
X010005Y002585D02*
X010005Y002135D01*
X009780Y002135D01*
X009705Y002210D01*
X009705Y002360D01*
X009780Y002435D01*
X010005Y002435D01*
X009544Y002360D02*
X009544Y002285D01*
X009244Y002285D01*
X009244Y002210D02*
X009244Y002360D01*
X009319Y002435D01*
X009469Y002435D01*
X009544Y002360D01*
X009469Y002135D02*
X009319Y002135D01*
X009244Y002210D01*
X009086Y002435D02*
X009011Y002435D01*
X008861Y002285D01*
X008861Y002135D02*
X008861Y002435D01*
X008794Y001665D02*
X009019Y001665D01*
X009094Y001590D01*
X009094Y001440D01*
X009019Y001365D01*
X008794Y001365D01*
X008944Y001365D02*
X009094Y001215D01*
X009254Y001290D02*
X009254Y001590D01*
X009329Y001665D01*
X009479Y001665D01*
X009554Y001590D01*
X009554Y001290D01*
X009479Y001215D01*
X009329Y001215D01*
X009254Y001290D01*
X008794Y001215D02*
X008794Y001665D01*
X008634Y001665D02*
X008634Y001215D01*
X008484Y001365D01*
X008333Y001215D01*
X008333Y001665D01*
X008173Y001590D02*
X008098Y001665D01*
X007873Y001665D01*
X007873Y001215D01*
X007873Y001365D02*
X008098Y001365D01*
X008173Y001440D01*
X008173Y001590D01*
X009715Y001665D02*
X009715Y001215D01*
X010015Y001215D02*
X010015Y001665D01*
X009715Y001665D02*
X010015Y001215D01*
D28*
X009250Y003800D02*
X008900Y003800D01*
X011550Y003800D02*
X011900Y003800D01*
X013700Y003800D02*
X014050Y003800D01*
X016350Y003800D02*
X016700Y003800D01*
D29*
X016275Y003800D03*
X014125Y003800D03*
X011475Y003800D03*
X009325Y003800D03*
D30*
X004900Y004200D03*
X004900Y005200D03*
X004900Y006200D03*
X004900Y007200D03*
X003900Y007200D03*
X003900Y006200D03*
X003900Y005200D03*
X003900Y004200D03*
X003900Y003200D03*
X004900Y003200D03*
X019200Y001900D03*
X020200Y001900D03*
D31*
X005348Y021114D02*
X005586Y021352D01*
X005303Y021698D01*
X005354Y021790D01*
X005394Y021886D01*
X005423Y021987D01*
X005868Y022032D01*
X005868Y022368D01*
X005423Y022413D01*
X005394Y022514D01*
X005354Y022610D01*
X005303Y022702D01*
X005586Y023048D01*
X005348Y023286D01*
X005002Y023003D01*
X004910Y023054D01*
X004814Y023094D01*
X004713Y023123D01*
X004668Y023568D01*
X004332Y023568D01*
X004287Y023123D01*
X004186Y023094D01*
X004090Y023054D01*
X003998Y023003D01*
X003652Y023286D01*
X003414Y023048D01*
X003697Y022702D01*
X003646Y022610D01*
X003606Y022514D01*
X003577Y022413D01*
X003132Y022368D01*
X003132Y022032D01*
X003577Y021987D01*
X003606Y021886D01*
X003646Y021790D01*
X003697Y021698D01*
X003414Y021352D01*
X003652Y021114D01*
X003998Y021397D01*
X004066Y021358D01*
X004137Y021325D01*
X004335Y021802D01*
X004271Y021835D01*
X004213Y021879D01*
X004163Y021932D01*
X004123Y021992D01*
X004094Y022058D01*
X004075Y022128D01*
X004069Y022200D01*
X004077Y022280D01*
X004099Y022358D01*
X004136Y022430D01*
X004185Y022494D01*
X004246Y022548D01*
X004315Y022589D01*
X004391Y022617D01*
X004471Y022630D01*
X004551Y022628D01*
X004630Y022610D01*
X004705Y022579D01*
X004772Y022534D01*
X004829Y022477D01*
X004875Y022411D01*
X004908Y022337D01*
X004927Y022259D01*
X005868Y022259D01*
X005868Y022316D02*
X004913Y022316D01*
X004927Y022259D02*
X004930Y022178D01*
X004918Y022098D01*
X004892Y022022D01*
X004852Y021952D01*
X004799Y021890D01*
X004736Y021840D01*
X004665Y021802D01*
X004863Y021325D01*
X004934Y021358D01*
X005002Y021397D01*
X005348Y021114D01*
X005399Y021165D02*
X005286Y021165D01*
X005215Y021223D02*
X005457Y021223D01*
X005515Y021280D02*
X005145Y021280D01*
X005074Y021338D02*
X005572Y021338D01*
X005550Y021395D02*
X005003Y021395D01*
X005000Y021395D02*
X004833Y021395D01*
X004857Y021338D02*
X004891Y021338D01*
X004809Y021453D02*
X005503Y021453D01*
X005456Y021511D02*
X004786Y021511D01*
X004762Y021568D02*
X005409Y021568D01*
X005362Y021626D02*
X004738Y021626D01*
X004714Y021683D02*
X005315Y021683D01*
X005327Y021741D02*
X004690Y021741D01*
X004666Y021798D02*
X005357Y021798D01*
X005381Y021856D02*
X004756Y021856D01*
X004819Y021913D02*
X005402Y021913D01*
X005418Y021971D02*
X004863Y021971D01*
X004894Y022029D02*
X005833Y022029D01*
X005868Y022086D02*
X004914Y022086D01*
X004925Y022144D02*
X005868Y022144D01*
X005868Y022201D02*
X004929Y022201D01*
X004892Y022374D02*
X005809Y022374D01*
X005418Y022431D02*
X004861Y022431D01*
X004818Y022489D02*
X005401Y022489D01*
X005380Y022547D02*
X004753Y022547D01*
X004645Y022604D02*
X005356Y022604D01*
X005326Y022662D02*
X003674Y022662D01*
X003683Y022719D02*
X005317Y022719D01*
X005364Y022777D02*
X003636Y022777D01*
X003589Y022834D02*
X005411Y022834D01*
X005458Y022892D02*
X003542Y022892D01*
X003495Y022949D02*
X005505Y022949D01*
X005552Y023007D02*
X005006Y023007D01*
X004995Y023007D02*
X004005Y023007D01*
X003994Y023007D02*
X003448Y023007D01*
X003430Y023065D02*
X003923Y023065D01*
X003852Y023122D02*
X003488Y023122D01*
X003546Y023180D02*
X003782Y023180D01*
X003711Y023237D02*
X003603Y023237D01*
X004116Y023065D02*
X004884Y023065D01*
X004716Y023122D02*
X004284Y023122D01*
X004293Y023180D02*
X004707Y023180D01*
X004702Y023237D02*
X004298Y023237D01*
X004304Y023295D02*
X004696Y023295D01*
X004690Y023352D02*
X004310Y023352D01*
X004316Y023410D02*
X004684Y023410D01*
X004678Y023467D02*
X004322Y023467D01*
X004328Y023525D02*
X004672Y023525D01*
X005077Y023065D02*
X005570Y023065D01*
X005512Y023122D02*
X005148Y023122D01*
X005218Y023180D02*
X005454Y023180D01*
X005397Y023237D02*
X005289Y023237D01*
X004357Y022604D02*
X003644Y022604D01*
X003620Y022547D02*
X004245Y022547D01*
X004182Y022489D02*
X003599Y022489D01*
X003582Y022431D02*
X004137Y022431D01*
X004107Y022374D02*
X003191Y022374D01*
X003132Y022316D02*
X004087Y022316D01*
X004075Y022259D02*
X003132Y022259D01*
X003132Y022201D02*
X004069Y022201D01*
X004074Y022144D02*
X003132Y022144D01*
X003132Y022086D02*
X004086Y022086D01*
X004107Y022029D02*
X003167Y022029D01*
X003582Y021971D02*
X004137Y021971D01*
X004180Y021913D02*
X003598Y021913D01*
X003619Y021856D02*
X004244Y021856D01*
X004334Y021798D02*
X003643Y021798D01*
X003673Y021741D02*
X004310Y021741D01*
X004286Y021683D02*
X003685Y021683D01*
X003638Y021626D02*
X004262Y021626D01*
X004238Y021568D02*
X003591Y021568D01*
X003544Y021511D02*
X004214Y021511D01*
X004191Y021453D02*
X003497Y021453D01*
X003450Y021395D02*
X003997Y021395D01*
X004000Y021395D02*
X004167Y021395D01*
X004143Y021338D02*
X004109Y021338D01*
X003926Y021338D02*
X003428Y021338D01*
X003485Y021280D02*
X003855Y021280D01*
X003785Y021223D02*
X003543Y021223D01*
X003601Y021165D02*
X003714Y021165D01*
D32*
X003710Y007995D02*
X003610Y007995D01*
X003610Y007920D01*
X003660Y007945D01*
X003685Y007945D01*
X003710Y007920D01*
X003710Y007870D01*
X003685Y007845D01*
X003635Y007845D01*
X003610Y007870D01*
X003758Y007895D02*
X003808Y007845D01*
X003858Y007895D01*
X003858Y007995D01*
X003758Y007995D02*
X003758Y007895D01*
X004763Y007870D02*
X004788Y007845D01*
X004813Y007845D01*
X004838Y007870D01*
X004838Y007995D01*
X004813Y007995D02*
X004863Y007995D01*
X004910Y007995D02*
X004985Y007995D01*
X005010Y007970D01*
X005010Y007920D01*
X004985Y007895D01*
X004910Y007895D01*
X004910Y007845D02*
X004910Y007995D01*
X005058Y007970D02*
X005058Y007945D01*
X005083Y007920D01*
X005158Y007920D01*
X005158Y007870D02*
X005158Y007970D01*
X005133Y007995D01*
X005083Y007995D01*
X005058Y007970D01*
X005058Y007870D02*
X005083Y007845D01*
X005133Y007845D01*
X005158Y007870D01*
M02*
